<?xml version="1.0" encoding="utf-8"?>
<!-- Generator: Adobe Illustrator 27.9.0, SVG Export Plug-In . SVG Version: 6.00 Build 0)  -->
<svg version="1.1" id="Layer_1" xmlns="http://www.w3.org/2000/svg" xmlns:xlink="http://www.w3.org/1999/xlink" x="0px" y="0px"
	 viewBox="0 0 3629.8 3328" style="enable-background:new 0 0 3629.8 3328;" xml:space="preserve">
<style type="text/css">
	.st0{fill:#3F2823;}
</style>
<path class="st0" d="M1821.9,0c492.1,9.3,948.5,137.5,1332.6,464.4c307.2,261.5,489.1,589.4,474.6,1003.1
	c-12.3,349.4-170.8,633.7-422.7,867.8c-300.7,279.4-663.4,427.2-1065.2,486.1c-204.9,30.1-410.5,33.5-615.8,3.4
	c-30.5-4.5-50,10.1-71.7,25.1c-200.2,138.9-395.9,284.3-602.7,413.5c-36.8,23-74.1,45.7-115.9,58.5c-50,15.3-67.4,2.4-67.2-49
	c0.2-51.8,16.5-100.5,31.1-149.1c42.8-142.8,84-286.1,132.4-426.9c18.5-53.7,8.8-76.6-41.4-103.1
	c-257.3-135.6-471-320.9-621.4-572.6C-115.5,1545.5-35.8,972.8,371.8,561.6c296.8-299.4,663-460.1,1073.5-530.4
	C1568.6,10.1,1693,3.4,1821.9,0z"/>
</svg>
