<?xml version="1.0" encoding="utf-8"?>
<!-- Generator: Adobe Illustrator 27.9.0, SVG Export Plug-In . SVG Version: 6.00 Build 0)  -->
<svg version="1.1" id="Layer_1" xmlns="http://www.w3.org/2000/svg" xmlns:xlink="http://www.w3.org/1999/xlink" x="0px" y="0px"
	 viewBox="0 0 2340.5 2326.6" style="enable-background:new 0 0 2340.5 2326.6;" xml:space="preserve">
<style type="text/css">
	.st0{fill:#FFFFFF;}
</style>
<path class="st0" d="M774.7,1133.7c-11.1,1.3-19.5,10.7-19.5,21.9c0,314.9,0,629.8,0,944.7c0,223.8,0,223.8-217.7,223.8
	c-145,0-290.2-3-435.1,1.3c-70.8,2.1-102.9-12-102.5-93.6c3-710.3,2.6-1420.7,0.3-2131C0.1,27.3,18.6-1.3,96.9,1.1
	c173.9,5.3,348.2,6.5,522-0.5c79.3-3.2,120.6,28.7,162.7,89.8c250,362.7,503.8,722.8,757.1,1084.6c10.4,14.8,33.2,11.5,39-5.6
	c7.6-22.2,5.9-53,6-73.5c2.1-323.7,4-647.5-0.5-971.2c-1.2-90.2,17.7-129,118.5-124.2c178.5,8.5,357.7,5.1,536.5,1.1
	c70.9-1.6,102.6,12.4,102.3,93.8c-3,710.3-2.6,1420.7-0.3,2131c0.2,73.6-18.4,101.9-96.6,99.5c-173.9-5.3-348.2-6.6-522,0.6
	c-79.4,3.3-120.5-28.6-162.6-89.7c-252.3-366-508.4-729.5-763.2-1093.8c-4.7-6.7-12.6-10.2-20.7-9.3
	C775,1133.7,774.9,1133.7,774.7,1133.7z"/>
</svg>
